<svg width="34" height="80" viewBox="0 0 34 80" fill="none" xmlns="http://www.w3.org/2000/svg">
<path id="logo" d="M9.97919 78.7402C10.6596 74.5843 12.4693 69.8591 14.5186 66.662C5.3012 64.2688 5.3012 50.6595 11.4853 46.4715C12.3706 45.8719 5.01356 43.4801 2.13726 32.1126C0.81033 26.8685 0.555288 22.54 1.84963 9.37772C2.60994 4.52025 3.25711 1.80304 3.79113 1.22607C5.94836 0.079351 7.65018 3.29514 8.89658 10.8734C9.69211 15.7104 8.861 24.9622 10.0471 32.5613C10.4953 35.4326 11.6937 39.471 13.6425 44.6766C15.3727 43.7792 17.2423 43.3305 19.2513 43.3305C22.4152 36.0224 22.4152 35.4032 23.4219 31.8135C24.4317 25.2123 25.2385 19.2289 26.5859 15.211C27.9251 11.2175 29.6742 7.15255 31.4756 7.73243C32.6944 8.12477 33.5147 9.3005 32.6261 17.1554C32.3385 19.6982 32.1947 27.3263 30.4689 31.8135C28.2733 37.522 26.164 41.4092 22.9905 43.7775C24.9192 44.7805 26.126 45.2667 27.4081 46.4715C29.9499 48.86 31.0441 52.4138 31.0441 55.5954C31.0441 60.9799 29.1878 64.2688 22.9905 66.662C25.3874 70.9497 26.8599 75.7615 27.4081 79" stroke="#922A87" stroke-width="2" stroke-linecap="round" stroke-linejoin="round"/>
</svg>
